<?xml version="1.0" standalone="no"?>
<!DOCTYPE svg PUBLIC "-//W3C//DTD SVG 20010904//EN"
 "http://www.w3.org/TR/2001/REC-SVG-20010904/DTD/svg10.dtd">
<svg version="1.0" xmlns="http://www.w3.org/2000/svg"
 width="473.000000pt" height="473.000000pt" viewBox="0 0 473.000000 473.000000"
 preserveAspectRatio="xMidYMid meet">
<metadata>
Created by potrace 1.11, written by Peter Selinger 2001-2013
</metadata>
<g transform="translate(0.000000,473.000000) scale(0.100000,-0.100000)"
fill="#000000" stroke="none">
<path d="M2155 4321 l-1400 -6 -74 -23 c-337 -104 -574 -347 -653 -669 -30
-123 -30 -303 0 -426 41 -166 123 -309 246 -432 86 -86 159 -135 277 -186 110
-48 182 -67 290 -76 l84 -8 5 -335 c3 -233 9 -343 17 -362 l13 -28 715 0 715
0 0 -125 0 -125 -651 0 -650 0 44 -58 c67 -87 203 -210 308 -280 354 -236 848
-348 1325 -301 118 12 263 35 271 43 3 3 -4 21 -15 40 l-21 35 44 22 c44 22
51 22 131 -2 36 -11 48 -10 88 5 38 15 412 281 465 332 12 11 -2 30 -97 129
-62 64 -112 123 -112 131 0 22 25 66 49 88 21 19 21 26 21 406 l0 386 118 13
c225 23 407 107 562 261 181 179 270 391 270 645 0 189 -47 346 -149 501 -165
250 -431 398 -731 407 -58 2 -735 1 -1505 -2z m1691 -365 c260 -69 450 -367
393 -615 -59 -260 -379 -423 -617 -316 -114 51 -181 151 -190 281 -6 96 14
153 84 238 62 75 99 96 169 96 106 0 185 -76 185 -178 -1 -167 -218 -243 -330
-116 -37 42 -46 30 -36 -48 12 -86 66 -167 138 -204 78 -41 214 -35 314 12
265 125 293 458 57 674 -66 60 -127 93 -203 109 -41 9 -438 11 -1581 9 l-1525
-3 -76 -37 c-183 -91 -305 -309 -270 -484 17 -81 48 -138 109 -195 111 -105
272 -141 404 -90 36 13 93 65 118 105 25 40 45 129 37 162 l-6 24 -38 -39
c-81 -85 -217 -78 -287 13 -29 39 -43 111 -31 160 9 36 65 96 103 112 42 18
115 18 156 0 38 -16 114 -100 148 -166 20 -37 24 -60 24 -130 0 -76 -3 -92
-33 -152 -18 -36 -49 -81 -69 -99 -144 -126 -386 -114 -561 28 -124 101 -180
283 -137 447 50 190 218 364 391 405 23 5 680 9 1574 10 1268 1 1544 -2 1586
-13z m-2154 -615 l33 -29 3 -491 c3 -540 3 -534 -58 -566 -46 -24 -76 -19
-118 19 l-37 34 -3 474 c-2 318 0 485 8 510 23 79 111 104 172 49z m624 -5
l34 -34 0 -490 0 -489 -23 -34 c-44 -65 -121 -63 -171 4 -21 28 -21 39 -24
490 -2 254 0 476 3 494 3 17 19 45 34 62 24 25 37 31 71 31 34 0 48 -6 76 -34z
m589 12 c54 -43 55 -49 55 -543 0 -494 -1 -500 -55 -543 -58 -46 -143 -11
-165 66 -6 23 -10 210 -10 485 0 486 1 492 55 535 15 12 42 22 60 22 18 0 45
-10 60 -22z"/>
<path d="M4557 1834 c-74 -24 -100 -39 -330 -197 -58 -40 -76 -47 -116 -47
-50 0 -197 39 -337 91 -104 37 -137 38 -175 0 -16 -16 -29 -37 -29 -47 0 -10
50 -68 110 -129 68 -70 110 -120 110 -132 0 -16 -59 -65 -222 -187 -123 -92
-243 -176 -268 -188 -52 -26 -122 -28 -165 -6 -24 13 -35 14 -52 5 -21 -12
-20 -14 36 -109 l56 -97 240 123 c378 192 686 376 980 584 167 119 257 203
295 275 44 85 1 105 -133 61z"/>
<path d="M677 1333 c13 -36 37 -64 65 -79 17 -9 31 -14 33 -12 4 3 -94 108
-100 108 -3 0 -1 -8 2 -17z"/>
<path d="M4130 1266 c-154 -90 -210 -166 -210 -283 0 -74 5 -76 71 -34 55 34
94 91 150 219 23 53 49 107 57 120 8 12 13 22 11 22 -2 0 -38 -20 -79 -44z"/>
<path d="M818 1167 l-3 -42 -50 -3 c-27 -2 -53 -9 -57 -15 -13 -20 -9 -84 6
-96 9 -8 71 -11 202 -9 l187 3 -67 44 c-37 24 -101 70 -141 102 l-74 58 -3
-42z"/>
<path d="M3600 968 c-179 -102 -422 -228 -440 -228 -5 0 -16 13 -25 30 l-15
29 -43 -15 c-85 -31 -306 -83 -422 -100 -86 -13 -179 -18 -325 -18 -219 1
-330 13 -535 59 l-113 26 -584 -3 -585 -3 -35 -27 c-96 -73 -89 -233 12 -292
35 -21 40 -21 1775 -24 957 -2 1765 0 1795 4 45 5 61 12 91 43 82 82 72 204
-24 275 -26 19 -45 21 -187 24 l-160 3 -2 159 -3 158 -175 -100z"/>
</g>
</svg>
