<svg id="Layer_1" data-name="Layer 1" xmlns="http://www.w3.org/2000/svg" width="116.34" height="90.18" viewBox="0 0 116.34 90.18"><defs></defs><title>AdminCog</title><path class="cls-1" d="M299.55,327.16l-5.18.49a15.71,15.71,0,0,0-1.34-2.32l3-4.25a19.51,19.51,0,0,0-2.41-2.4l-4.25,3a14,14,0,0,0-2.32-1.34l.5-5.19a20.17,20.17,0,0,0-3.29-.88L282.11,319c-.44,0-.89-.06-1.34-.06s-.9,0-1.34.06l-2.17-4.73a20.17,20.17,0,0,0-3.29.88l.49,5.19a14.87,14.87,0,0,0-2.32,1.34l-4.25-3a20.15,20.15,0,0,0-2.4,2.4l3,4.25a15.71,15.71,0,0,0-1.34,2.32l-5.19-.49a20.17,20.17,0,0,0-.88,3.29l4.74,2.17c0,.44-.07.88-.07,1.34s0,.9.07,1.34l-4.74,2.17a20.06,20.06,0,0,0,.88,3.28l5.19-.49a15.21,15.21,0,0,0,1.34,2.32l-3,4.25a20.23,20.23,0,0,0,2.4,2.41l4.25-3a14.81,14.81,0,0,0,2.32,1.33l-.49,5.19a19.24,19.24,0,0,0,3.29.89l2.17-4.74c.44,0,.89.07,1.34.07s.9,0,1.34-.07l2.17,4.74a19.24,19.24,0,0,0,3.29-.89l-.5-5.19a14,14,0,0,0,2.32-1.33l4.25,3a19.59,19.59,0,0,0,2.41-2.41l-3-4.25a15.21,15.21,0,0,0,1.34-2.32l5.18.49a19.13,19.13,0,0,0,.89-3.28l-4.74-2.17c0-.44.07-.89.07-1.34s0-.9-.07-1.34l4.74-2.17A19.24,19.24,0,0,0,299.55,327.16ZM280.77,346a12,12,0,1,1,12-12A12,12,0,0,1,280.77,346Z" transform="translate(-225.53 -285.07)"/><path class="cls-1" d="M280.77,324a10,10,0,1,0,10,10A10,10,0,0,0,280.77,324Zm0,16a6,6,0,1,1,6-6A6,6,0,0,1,280.77,340Z" transform="translate(-225.53 -285.07)"/><path class="cls-1" d="M264.91,323.53l-.49-5.19a14.87,14.87,0,0,0,2.32-1.34l4.25,3a20.23,20.23,0,0,0,2.4-2.41l-3-4.25a14.87,14.87,0,0,0,1.34-2.32l5.19.49a19.91,19.91,0,0,0,.88-3.29L273,306.09c0-.45.07-.89.07-1.35s0-.89-.07-1.34l4.74-2.16a19.91,19.91,0,0,0-.88-3.29l-5.19.49a14.42,14.42,0,0,0-1.34-2.32l3-4.25a20.23,20.23,0,0,0-2.4-2.41l-4.25,3a15.65,15.65,0,0,0-2.32-1.33l.49-5.19a19.24,19.24,0,0,0-3.29-.89l-2.17,4.74c-.44,0-.89-.07-1.34-.07s-.9,0-1.34.07l-2.17-4.74a18.88,18.88,0,0,0-3.28.89l.49,5.19a15.16,15.16,0,0,0-2.32,1.33l-4.25-3a20.32,20.32,0,0,0-2.41,2.41l3,4.25a14.37,14.37,0,0,0-1.33,2.32l-5.19-.49a19,19,0,0,0-.89,3.29l4.74,2.16c0,.45-.07.89-.07,1.34s0,.9.07,1.35l-4.74,2.16a19,19,0,0,0,.89,3.29l5.19-.49a14.81,14.81,0,0,0,1.33,2.32l-3,4.25a20.32,20.32,0,0,0,2.41,2.41l4.25-3a14,14,0,0,0,2.32,1.34l-.49,5.19a20.84,20.84,0,0,0,3.28.89l2.17-4.74c.44,0,.89.06,1.34.06s.9,0,1.34-.06l2.17,4.74A21.26,21.26,0,0,0,264.91,323.53Zm-6.8-6.79a12,12,0,1,1,12-12A12,12,0,0,1,258.11,316.74Z" transform="translate(-225.53 -285.07)"/><path class="cls-1" d="M258.11,298.74a6,6,0,1,0,6,6A6,6,0,0,0,258.11,298.74Zm0,10a4,4,0,1,1,4-4A4,4,0,0,1,258.11,308.74Z" transform="translate(-225.53 -285.07)"/><path class="cls-1" d="M325.28,311.41c0-.45,0-.9-.07-1.34L330,307.9a20.17,20.17,0,0,0-.88-3.29l-5.19.49a15.71,15.71,0,0,0-1.34-2.32l3-4.25a20.92,20.92,0,0,0-2.4-2.4l-4.25,3a15.71,15.71,0,0,0-2.32-1.34l.49-5.19a20.17,20.17,0,0,0-3.29-.88l-2.17,4.74c-.44,0-.89-.07-1.34-.07s-.9,0-1.34.07l-2.17-4.74a20.17,20.17,0,0,0-3.29.88l.5,5.19a14.75,14.75,0,0,0-2.32,1.34l-4.25-3a20.23,20.23,0,0,0-2.41,2.4l3,4.25a14.81,14.81,0,0,0-1.33,2.32l-5.19-.49a19.24,19.24,0,0,0-.89,3.29l4.74,2.17c0,.44-.07.89-.07,1.34s0,.9.07,1.34l-4.74,2.17a19.24,19.24,0,0,0,.89,3.29l5.18-.5A14.75,14.75,0,0,0,298,320l-3,4.25a19.59,19.59,0,0,0,2.41,2.41l4.25-3A14.75,14.75,0,0,0,304,325l-.5,5.18a19.24,19.24,0,0,0,3.29.89l2.17-4.74c.44,0,.89.07,1.34.07s.9,0,1.34-.07l2.17,4.74a19.24,19.24,0,0,0,3.29-.89l-.49-5.18a15.71,15.71,0,0,0,2.32-1.34l4.25,3a20.23,20.23,0,0,0,2.4-2.41l-3-4.25a14.75,14.75,0,0,0,1.34-2.32l5.19.5a20.17,20.17,0,0,0,.88-3.29l-4.74-2.17C325.25,312.31,325.28,311.86,325.28,311.41Zm-15,12a12,12,0,1,1,12-12A12,12,0,0,1,310.28,323.41Z" transform="translate(-225.53 -285.07)"/><path class="cls-1" d="M310.28,303.41a8,8,0,1,0,8,8A8,8,0,0,0,310.28,303.41Zm0,12a4,4,0,1,1,4-4A4,4,0,0,1,310.28,315.41Z" transform="translate(-225.53 -285.07)"/><path class="cls-1" d="M233.55,375.06l-.82-3.61H229l-.82,3.61h-2.66l3.54-14.34h3.6l3.54,14.34Zm-1.32-6-.76-3.32c-.05-.2-.15-.71-.31-1.52s-.26-1.35-.29-1.62c-.08.55-.19,1.17-.32,1.85s-.47,2.21-1,4.61Z" transform="translate(-225.53 -285.07)"/><path class="cls-1" d="M240.18,375.25a2.65,2.65,0,0,1-2.37-1.48,8.21,8.21,0,0,1-.87-4.13,8.46,8.46,0,0,1,.85-4.16,2.58,2.58,0,0,1,2.34-1.51,2.27,2.27,0,0,1,1.28.37,3.32,3.32,0,0,1,1,1.23h.15c-.08-1-.12-1.68-.12-2.08v-3.63h2.6v15.2h-1.93l-.44-1.42h-.09A2.6,2.6,0,0,1,240.18,375.25Zm.84-2.19a1.1,1.1,0,0,0,1-.66,6,6,0,0,0,.36-2.4v-.34a7.53,7.53,0,0,0-.33-2.67,1.16,1.16,0,0,0-1.11-.77c-.48,0-.83.29-1.05.88a7.75,7.75,0,0,0-.33,2.58,7.35,7.35,0,0,0,.33,2.53A1.15,1.15,0,0,0,241,373.06Z" transform="translate(-225.53 -285.07)"/><path class="cls-1" d="M258,375.06v-6.49c0-1.59-.39-2.39-1.18-2.39a1.28,1.28,0,0,0-1.23.85,7.36,7.36,0,0,0-.37,2.74v5.29h-2.62v-6.49c0-1.59-.4-2.39-1.2-2.39a1.26,1.26,0,0,0-1.22.85,7.3,7.3,0,0,0-.38,2.8v5.23h-2.6V364.18h2.06l.31,1.39h.17a2.66,2.66,0,0,1,1.07-1.21,2.84,2.84,0,0,1,1.45-.39,2.58,2.58,0,0,1,2.65,1.89h.1a2.77,2.77,0,0,1,2.67-1.89,2.55,2.55,0,0,1,2.19,1,5,5,0,0,1,.75,3v7.1Z" transform="translate(-225.53 -285.07)"/><path class="cls-1" d="M262.67,361.34a1.38,1.38,0,0,1,.37-1,1.41,1.41,0,0,1,1-.38,1.34,1.34,0,0,1,1,.38,1.38,1.38,0,0,1,.38,1,1.36,1.36,0,0,1-.39,1,1.44,1.44,0,0,1-1,.36,1.47,1.47,0,0,1-1-.36A1.36,1.36,0,0,1,262.67,361.34Zm2.7,13.72h-2.59V364.18h2.59Z" transform="translate(-225.53 -285.07)"/><path class="cls-1" d="M273,375.06v-6.49a4.31,4.31,0,0,0-.28-1.78,1,1,0,0,0-.92-.61,1.29,1.29,0,0,0-1.23.84,7.18,7.18,0,0,0-.39,2.81v5.23h-2.6V364.18h2.06l.31,1.39h.17a2.72,2.72,0,0,1,2.54-1.6,2.56,2.56,0,0,1,2.22,1,5,5,0,0,1,.74,3v7.1Z" transform="translate(-225.53 -285.07)"/><path class="cls-1" d="M277.65,361.34a1.38,1.38,0,0,1,.37-1,1.41,1.41,0,0,1,1.05-.38,1.34,1.34,0,0,1,1,.38,1.38,1.38,0,0,1,.38,1,1.36,1.36,0,0,1-.39,1,1.44,1.44,0,0,1-1,.36,1.47,1.47,0,0,1-1-.36A1.36,1.36,0,0,1,277.65,361.34Zm2.7,13.72h-2.59V364.18h2.59Z" transform="translate(-225.53 -285.07)"/><path class="cls-1" d="M288.42,371.87a3.29,3.29,0,0,1-.93,2.49,3.85,3.85,0,0,1-2.75.89,5.15,5.15,0,0,1-2.67-.63v-2.26a5.28,5.28,0,0,0,1.26.62,4.07,4.07,0,0,0,1.26.24,1.32,1.32,0,0,0,.93-.3,1,1,0,0,0,.31-.78,1.28,1.28,0,0,0-.33-.87,5.65,5.65,0,0,0-1.22-.91,5,5,0,0,1-1.69-1.5,3.34,3.34,0,0,1-.52-1.88,2.76,2.76,0,0,1,.95-2.2,3.93,3.93,0,0,1,2.62-.81,5.3,5.3,0,0,1,2.72.76l-.85,1.87a3.94,3.94,0,0,0-1.83-.57,1,1,0,0,0-.75.27.87.87,0,0,0-.25.64,1.1,1.1,0,0,0,.31.78,5.27,5.27,0,0,0,1.15.85,7.18,7.18,0,0,1,1.42,1.05,3.15,3.15,0,0,1,.64,1A3.4,3.4,0,0,1,288.42,371.87Z" transform="translate(-225.53 -285.07)"/><path class="cls-1" d="M293.84,373.06a3.06,3.06,0,0,0,1.18-.28v2a3.29,3.29,0,0,1-1.9.44,2.53,2.53,0,0,1-2.1-.84,4,4,0,0,1-.69-2.54v-5.63h-1.05v-1.16l1.36-.94.66-2.31H293v2.35h2v2.06h-2V372C293,372.69,293.25,373.06,293.84,373.06Z" transform="translate(-225.53 -285.07)"/><path class="cls-1" d="M301.18,364a3,3,0,0,1,.94.15l-.3,2.52a2,2,0,0,0-.71-.1,1.65,1.65,0,0,0-1.46.75,3.84,3.84,0,0,0-.51,2.17v5.6h-2.59V364.18h2.13l.3,1.7h.08a4,4,0,0,1,.94-1.47A1.76,1.76,0,0,1,301.18,364Z" transform="translate(-225.53 -285.07)"/><path class="cls-1" d="M308.62,375.06l-.52-1.49H308a3.64,3.64,0,0,1-1.19,1.32,3,3,0,0,1-1.55.36,2.23,2.23,0,0,1-1.89-.9,4,4,0,0,1-.69-2.5,3.24,3.24,0,0,1,.94-2.55,4.47,4.47,0,0,1,2.82-.92l1.44-.06v-.78q0-1.53-1.32-1.53a4.47,4.47,0,0,0-2.24.77l-.9-1.8a6.51,6.51,0,0,1,3.52-1,3.4,3.4,0,0,1,2.64,1,4.05,4.05,0,0,1,.9,2.81v7.31Zm-2.26-1.84a1.3,1.3,0,0,0,1.14-.64,3.06,3.06,0,0,0,.42-1.7V370l-.8,0a1.78,1.78,0,0,0-1.3.51,1.94,1.94,0,0,0-.42,1.36Q305.4,373.22,306.36,373.22Z" transform="translate(-225.53 -285.07)"/><path class="cls-1" d="M316.4,373.06a3.06,3.06,0,0,0,1.18-.28v2a3.29,3.29,0,0,1-1.9.44,2.53,2.53,0,0,1-2.1-.84,4,4,0,0,1-.69-2.54v-5.63h-1.05v-1.16l1.36-.94.66-2.31h1.66v2.35h2v2.06h-2V372C315.52,372.69,315.81,373.06,316.4,373.06Z" transform="translate(-225.53 -285.07)"/><path class="cls-1" d="M319,361.34a1.3,1.3,0,0,1,1.42-1.4,1.36,1.36,0,0,1,1,.38,1.38,1.38,0,0,1,.38,1,1.36,1.36,0,0,1-.39,1,1.44,1.44,0,0,1-1,.36,1.45,1.45,0,0,1-1-.36A1.36,1.36,0,0,1,319,361.34Zm2.7,13.72h-2.6V364.18h2.6Z" transform="translate(-225.53 -285.07)"/><path class="cls-1" d="M332,369.6a6.7,6.7,0,0,1-1.13,4.16,3.66,3.66,0,0,1-3.1,1.49,3.74,3.74,0,0,1-2.21-.68,4.37,4.37,0,0,1-1.48-2,8.13,8.13,0,0,1-.51-3,6.74,6.74,0,0,1,1.12-4.14,3.7,3.7,0,0,1,3.12-1.49,3.64,3.64,0,0,1,3.06,1.52A6.68,6.68,0,0,1,332,369.6Zm-5.78,0a7,7,0,0,0,.37,2.57,1.25,1.25,0,0,0,1.2.87c1,0,1.56-1.15,1.56-3.44A6.65,6.65,0,0,0,329,367a1.24,1.24,0,0,0-1.18-.84,1.25,1.25,0,0,0-1.2.84A6.89,6.89,0,0,0,326.22,369.6Z" transform="translate(-225.53 -285.07)"/><path class="cls-1" d="M339.25,375.06v-6.49a4.31,4.31,0,0,0-.28-1.78,1,1,0,0,0-.92-.61,1.29,1.29,0,0,0-1.23.84,7.18,7.18,0,0,0-.39,2.81v5.23h-2.6V364.18h2.06l.31,1.39h.17a2.72,2.72,0,0,1,2.54-1.6,2.56,2.56,0,0,1,2.22,1,5,5,0,0,1,.74,3v7.1Z" transform="translate(-225.53 -285.07)"/></svg>