<svg id="Layer_1" data-name="Layer 1" xmlns="http://www.w3.org/2000/svg" width="87.58mm" height="92.09mm" viewBox="0 0 248.25 261.05"><defs></defs><title>CatalogIcon</title><path class="cls-1" d="M264,310l-83.2,21.42a3,3,0,0,0,.75,5.9,3.2,3.2,0,0,0,.75-.09l83.19-21.42A3,3,0,1,0,264,310Zm0,16.22-83.2,21.42a3,3,0,0,0,.75,5.9,3.2,3.2,0,0,0,.75-.09l83.19-21.42a3,3,0,1,0-1.49-5.81ZM405.34,184.19l-120.6-31,0,0h0a2,2,0,0,0-.35-.1h0l-.26-.05H284l-.3,0h-.2a2.88,2.88,0,0,0-.77.08L161.59,184.19a3,3,0,0,0-2.25,2.91V381.44a3,3,0,0,0,3,3,3.2,3.2,0,0,0,.75-.09l118.74-30.56a4,4,0,0,0,.39.23l80.45,59.39a3.05,3.05,0,0,0,1.78.58,3,3,0,0,0,1.36-.32,3,3,0,0,0,1.64-2.68V398.63l9.87,5.17a3,3,0,0,0,2.94-.09,3,3,0,0,0,1.45-2.57V391l8.47,3.14a2.9,2.9,0,0,0,1,.19,3,3,0,0,0,1.72-.54,3,3,0,0,0,1.28-2.46V382l9.65,2.4a3,3,0,0,0,.72.09,3,3,0,0,0,3-3V187.1A3,3,0,0,0,405.34,184.19ZM280.43,348,165.34,377.57V189.43l115.09-29.62Zm81,57.09-74.82-55.24V161.94l74.82,56.21Zm14.26-8.87-8.26-4.32V216.65a3,3,0,0,0-1.19-2.4L316.72,177l59,31.56Zm12.51-9.2-6.51-2.42V206.8a3,3,0,0,0-1.59-2.64l-53.49-28.62L388.22,199Zm13.37-9.38-7.37-1.83V197a3,3,0,0,0-1.93-2.8l-57.5-21.92,66.8,17.2ZM178.57,294l0,.14a2.88,2.88,0,0,0,.2.56.41.41,0,0,0,0,.09l.16.29.08.09.27.31.23.22.07.07a2.87,2.87,0,0,0,.43.28l0,0a2.78,2.78,0,0,0,.57.21l.16,0a2.74,2.74,0,0,0,.64.08,3.2,3.2,0,0,0,.75-.09l83.19-21.41a3,3,0,0,0,.69-.29l.12-.06a3.39,3.39,0,0,0,.56-.44.39.39,0,0,0,.08-.1,2.77,2.77,0,0,0,.44-.58h0a2.66,2.66,0,0,0,.26-.7l0-.07a.28.28,0,0,0,0-.09.86.86,0,0,0,0-.17l0-.3V181.3a3,3,0,0,0-1.16-2.37,3,3,0,0,0-2.58-.54l-83.2,21.42a3,3,0,0,0-2.25,2.9v90.71s0,.05,0,.07A3.19,3.19,0,0,0,178.57,294ZM189,288.4l34.66-46.7,34.65,28.87Zm72.73-22.79L227.2,236.87l34.49-46.49Zm-4.45-79.29L222.58,233l-34.66-28.86Zm-72.74,22.8L219,237.85l-34.5,46.49Z" transform="translate(-159.34 -152.94)"/></svg>