<svg id="Layer_1" data-name="Layer 1" xmlns="http://www.w3.org/2000/svg" width="357.2" height="100.16" viewBox="0 0 357.2 100.16"><defs></defs><title>ProductImageLinksIcon</title><path class="cls-1" d="M196,333.22l-31.92,8.22a1.15,1.15,0,0,0,.29,2.26,1.33,1.33,0,0,0,.28,0l31.92-8.22a1.15,1.15,0,0,0-.57-2.23Zm0,6.22-31.92,8.22a1.15,1.15,0,0,0-.83,1.4,1.16,1.16,0,0,0,1.12.87,1.35,1.35,0,0,0,.28,0l31.92-8.22a1.15,1.15,0,0,0-.57-2.23Zm54.25-54.5L204,273h0l-.13,0h-.35l-.29,0-46.46,12a1.15,1.15,0,0,0-.87,1.11v74.57a1.16,1.16,0,0,0,.45.91,1.12,1.12,0,0,0,.7.24.92.92,0,0,0,.29,0L202.89,350l.15.09,30.87,22.78a1.15,1.15,0,0,0,1.2.11,1.17,1.17,0,0,0,.64-1v-4.74l3.78,2a1.12,1.12,0,0,0,.53.13,1.17,1.17,0,0,0,1.16-1.15v-3.91l3.25,1.21a1.13,1.13,0,0,0,1.05-.14,1.14,1.14,0,0,0,.5-.94v-3.58l3.7.92a1.27,1.27,0,0,0,.28,0,1.12,1.12,0,0,0,.7-.24,1.17,1.17,0,0,0,.45-.91V286.05A1.15,1.15,0,0,0,250.28,284.94Zm-47.92,62.83L158.2,359.13V286.94l44.16-11.36Zm31.08,21.91-28.71-21.2V276.4L233.44,298Zm5.47-3.4-3.16-1.66V297.39a1.16,1.16,0,0,0-.46-.92l-19-14.28,22.63,12.11Zm4.81-3.54-2.5-.93v-68.2a1.16,1.16,0,0,0-.61-1l-20.53-11,23.64,9Zm5.12-3.59-2.82-.71V289.83a1.16,1.16,0,0,0-.74-1.07l-22.07-8.41,25.63,6.59Zm-85.57-32.07a.07.07,0,0,1,0,.05,2,2,0,0,0,.08.22l0,0,.06.11,0,0,.11.12.08.08,0,0a1,1,0,0,0,.17.1h0a.83.83,0,0,0,.22.08l.06,0a1,1,0,0,0,.25,0,.9.9,0,0,0,.28,0l31.92-8.21a1.69,1.69,0,0,0,.27-.11l0,0a1.46,1.46,0,0,0,.21-.16l0,0a1,1,0,0,0,.17-.23h0a1.08,1.08,0,0,0,.1-.27s0,0,0,0a0,0,0,0,1,0,0,.13.13,0,0,1,0-.06.49.49,0,0,1,0-.12V283.83a1.16,1.16,0,0,0-1.44-1.12l-31.92,8.22a1.14,1.14,0,0,0-.86,1.11v34.83A1.49,1.49,0,0,0,163.27,327.08Zm4-2.16L180.56,307l13.29,11.08Zm27.91-8.74-13.24-11,13.24-17.84Zm-1.71-30.43-13.3,17.92-13.3-11.07Zm-27.91,8.75,13.23,11-13.23,17.83Z" transform="translate(-155.89 -272.95)"/><path class="cls-2" d="M463,357.69a9.93,9.93,0,0,1-7-2.91l-5.47-5.48a10,10,0,0,1,0-14.08l19-19a9.9,9.9,0,0,1,7-2.91h0a9.84,9.84,0,0,1,7,2.87l2.78,2.78a3.08,3.08,0,0,1-4.35,4.35l-2.78-2.78a3.8,3.8,0,0,0-5.35,0l-19,19a3.83,3.83,0,0,0,0,5.39l5.48,5.47a3.81,3.81,0,0,0,5.39,0l10.05-10.05a3.07,3.07,0,0,1,4.35,4.34L470,354.78A9.93,9.93,0,0,1,463,357.69Z" transform="translate(-155.89 -272.95)"/><path class="cls-2" d="M484.17,336.45a9.83,9.83,0,0,1-7-2.83l-2.78-2.78a3.07,3.07,0,1,1,4.34-4.34l2.78,2.78a3.89,3.89,0,0,0,5.35,0l19-19a3.84,3.84,0,0,0,0-5.4l-5.48-5.47a3.83,3.83,0,0,0-5.39,0l-10.05,10a3.07,3.07,0,0,1-4.35-4.34l10.06-10.06a10,10,0,0,1,14.08,0l5.47,5.48a10,10,0,0,1,0,14.08l-19,19A10,10,0,0,1,484.17,336.45Z" transform="translate(-155.89 -272.95)"/><path class="cls-3" d="M395.88,273h-88a6,6,0,0,0-6,6v88a6,6,0,0,0,6,6h88a6,6,0,0,0,6-6V279A6,6,0,0,0,395.88,273Zm2,94a2,2,0,0,1-2,2h-88a2,2,0,0,1-2-2v-9.3l19.57-24.6a4,4,0,0,1,3.05-1.51,4,4,0,0,1,3.11,1.39L343.71,347a2,2,0,0,0,3.25-.31l20.7-36.11a4,4,0,0,1,6.84-.17L397.88,347Zm0-27.42-20-31.24a8,8,0,0,0-13.68.34L344.9,342.28l-10.25-11.95a8,8,0,0,0-12.34.23l-16.43,20.66V279a2,2,0,0,1,2-2h88a2,2,0,0,1,2,2Z" transform="translate(-155.89 -272.95)"/><path class="cls-3" d="M329.88,289a12,12,0,1,0,12,12A12,12,0,0,0,329.88,289Zm0,20a8,8,0,1,1,8-8A8,8,0,0,1,329.88,309Z" transform="translate(-155.89 -272.95)"/><path class="cls-4" d="M278.49,306.46V321h14v3.72h-14v14.68h-4V324.75h-14V321h14V306.46Z" transform="translate(-155.89 -272.95)"/><path class="cls-4" d="M430.2,306.46V321h14v3.72h-14v14.68h-4V324.75h-14V321h14V306.46Z" transform="translate(-155.89 -272.95)"/></svg>