<svg id="Layer_1" data-name="Layer 1" xmlns="http://www.w3.org/2000/svg" width="500" height="500" viewBox="0 0 500 500"><defs></defs><title>ImageIcon</title><path class="cls-1" d="M820,350H380a30,30,0,0,0-30,30V820a30,30,0,0,0,30,30H820a30,30,0,0,0,30-30V380A30,30,0,0,0,820,350Zm10,470a10,10,0,0,1-10,10H380a10,10,0,0,1-10-10V773.49l97.84-123a20,20,0,0,1,30.83-.57l60.49,70.51a10,10,0,0,0,16.27-1.53L678.9,538.34a20,20,0,0,1,34.2-.84L830,720Zm0-137.08L729.94,526.71a40,40,0,0,0-68.39,1.69L565.12,696.66,513.85,636.9A40,40,0,0,0,452.19,638L370,741.36V380a10,10,0,0,1,10-10H820a10,10,0,0,1,10,10Z" transform="translate(-350 -350)"/><path class="cls-1" d="M490,430a60,60,0,1,0,60,60A60.07,60.07,0,0,0,490,430Zm0,100a40,40,0,1,1,40-40A40.05,40.05,0,0,1,490,530Z" transform="translate(-350 -350)"/></svg>