<svg id="Layer_1" data-name="Layer 1" xmlns="http://www.w3.org/2000/svg" width="211.22" height="100" viewBox="0 0 211.22 100"><defs></defs><title>ImageLinkIcon</title><path class="cls-1" d="M463,357.69a9.93,9.93,0,0,1-7-2.91l-5.47-5.48a10,10,0,0,1,0-14.08l19-19a9.9,9.9,0,0,1,7-2.91h0a9.84,9.84,0,0,1,7,2.87l2.78,2.78a3.08,3.08,0,0,1-4.35,4.35l-2.78-2.78a3.8,3.8,0,0,0-5.35,0l-19,19a3.83,3.83,0,0,0,0,5.39l5.48,5.47a3.81,3.81,0,0,0,5.39,0l10.05-10.05a3.07,3.07,0,0,1,4.35,4.34L470,354.78A9.93,9.93,0,0,1,463,357.69Z" transform="translate(-301.88 -272.95)"/><path class="cls-1" d="M484.17,336.45a9.83,9.83,0,0,1-7-2.83l-2.78-2.78a3.07,3.07,0,1,1,4.34-4.34l2.78,2.78a3.89,3.89,0,0,0,5.35,0l19-19a3.84,3.84,0,0,0,0-5.4l-5.48-5.47a3.83,3.83,0,0,0-5.39,0l-10.05,10a3.07,3.07,0,0,1-4.35-4.34l10.06-10.06a10,10,0,0,1,14.08,0l5.47,5.48a10,10,0,0,1,0,14.08l-19,19A10,10,0,0,1,484.17,336.45Z" transform="translate(-301.88 -272.95)"/><path class="cls-2" d="M395.88,273h-88a6,6,0,0,0-6,6v88a6,6,0,0,0,6,6h88a6,6,0,0,0,6-6V279A6,6,0,0,0,395.88,273Zm2,94a2,2,0,0,1-2,2h-88a2,2,0,0,1-2-2v-9.3l19.57-24.6a4,4,0,0,1,3.05-1.51,4,4,0,0,1,3.11,1.39L343.71,347a2,2,0,0,0,3.25-.31l20.7-36.11a4,4,0,0,1,6.84-.17L397.88,347Zm0-27.42-20-31.24a8,8,0,0,0-13.68.34L344.9,342.28l-10.25-11.95a8,8,0,0,0-12.34.23l-16.43,20.66V279a2,2,0,0,1,2-2h88a2,2,0,0,1,2,2Z" transform="translate(-301.88 -272.95)"/><path class="cls-2" d="M329.88,289a12,12,0,1,0,12,12A12,12,0,0,0,329.88,289Zm0,20a8,8,0,1,1,8-8A8,8,0,0,1,329.88,309Z" transform="translate(-301.88 -272.95)"/><path class="cls-3" d="M430.2,306.46V321h14v3.72h-14v14.68h-4V324.75h-14V321h14V306.46Z" transform="translate(-301.88 -272.95)"/></svg>