<svg id="Layer_1" data-name="Layer 1" xmlns="http://www.w3.org/2000/svg" width="1400" height="1400" viewBox="0 0 1400 1400"><title>LinkIcon</title><path d="M529.5,1600a212.09,212.09,0,0,1-150.39-62.19l-117-117a213.14,213.14,0,0,1,0-300.81l405-405a211.73,211.73,0,0,1,150.06-62.25h.68c56.63,0,109.59,21.77,149.18,61.38l59.41,59.39a65.63,65.63,0,0,1-92.87,92.75L874.28,807c-14.86-14.87-35-22.49-56.65-23A81.23,81.23,0,0,0,760,807.84l-405,405a81.88,81.88,0,0,0,0,115.19l117,117a81.54,81.54,0,0,0,115.19,0l214.8-214.8A65.63,65.63,0,0,1,894.72,1323L679.9,1537.81A212.08,212.08,0,0,1,529.5,1600Z" transform="translate(-200 -200)"/><path d="M982.05,1146.33c-54.45,0-108.75-20.15-149.12-60.5l-59.39-59.45a65.61,65.61,0,1,1,92.86-92.72L925.74,993c30.21,30.2,83.64,29.79,114.29-.9l405-405a81.92,81.92,0,0,0,0-115.21l-117-117a81.87,81.87,0,0,0-115.18,0L998.12,569.74a65.63,65.63,0,0,1-92.82-92.82l214.82-214.8a213.12,213.12,0,0,1,300.79,0l117,117a213.12,213.12,0,0,1,0,300.79l-405,405C1091.93,1125.84,1036.93,1146.33,982.05,1146.33Z" transform="translate(-200 -200)"/></svg>